<?xml version="1.0" standalone="no"?><svg xmlns="http://www.w3.org/2000/svg" viewBox="0 0 1440 320"><path fill="#00788c" fill-opacity="1" d="M0,64L13.3,58.7C26.7,53,53,43,80,53.3C106.7,64,133,96,160,101.3C186.7,107,213,85,240,101.3C266.7,117,293,171,320,186.7C346.7,203,373,181,400,170.7C426.7,160,453,160,480,186.7C506.7,213,533,267,560,282.7C586.7,299,613,277,640,250.7C666.7,224,693,192,720,192C746.7,192,773,224,800,224C826.7,224,853,192,880,192C906.7,192,933,224,960,218.7C986.7,213,1013,171,1040,170.7C1066.7,171,1093,213,1120,245.3C1146.7,277,1173,299,1200,277.3C1226.7,256,1253,192,1280,144C1306.7,96,1333,64,1360,53.3C1386.7,43,1413,53,1427,58.7L1440,64L1440,320L1426.7,320C1413.3,320,1387,320,1360,320C1333.3,320,1307,320,1280,320C1253.3,320,1227,320,1200,320C1173.3,320,1147,320,1120,320C1093.3,320,1067,320,1040,320C1013.3,320,987,320,960,320C933.3,320,907,320,880,320C853.3,320,827,320,800,320C773.3,320,747,320,720,320C693.3,320,667,320,640,320C613.3,320,587,320,560,320C533.3,320,507,320,480,320C453.3,320,427,320,400,320C373.3,320,347,320,320,320C293.3,320,267,320,240,320C213.3,320,187,320,160,320C133.3,320,107,320,80,320C53.3,320,27,320,13,320L0,320Z"></path></svg>